<?xml version="1.0" encoding="utf-8"?>
<!-- Generator: Adobe Illustrator 19.0.0, SVG Export Plug-In . SVG Version: 6.00 Build 0)  -->
<svg version="1.1" id="Layer_1" xmlns="http://www.w3.org/2000/svg" xmlns:xlink="http://www.w3.org/1999/xlink" x="0px" y="0px"
	 viewBox="0 0 432 68" style="enable-background:new 0 0 432 68;" xml:space="preserve">
<g>
	<g>
		<g>
			<g>
				<g>
					<path d="M30.045,52.609h-13.13v-0.13c2.156-4.106,2.697-6.598,2.697-12.052V4.48l-7.34,0.27
						C9.31,4.956,4.332,12.495,0.897,17.406l-0.538-0.199L2.918,3.344h41.123L46.6,17.208l-0.541,0.199
						C42.428,12.495,37.713,4.956,34.685,4.75l-7.337-0.27v35.948c0,5.583,0.472,7.875,2.697,12.052V52.609z"/>
					<path d="M52.446,52.609v-0.13c1.213-3.708,1.483-7.001,1.483-12.924V12.625c0-4.371-1.415-6.932-3.03-8.748V3.742l9.767-3.498
						v25.441c2.89-3.498,6.052-6.188,10.831-6.188c6.196,0,9.56,3.763,9.56,9.757v10.301c0,5.923,0.066,9.216,1.48,12.924v0.13
						h-9.764v-0.13c1.279-3.772,1.55-7.271,1.55-12.924v-8.754c0-3.833-1.817-7.202-6.19-7.202c-2.893,0-5.385,1.284-7.467,3.435
						v12.522c0,5.788,0.129,9.216,1.547,12.924v0.13H52.446z"/>
					<path d="M116.419,43.662c-1.817,5.583-6.325,9.956-13.321,9.956c-8.958,0-15.146-7.066-15.146-16.488
						c0-10.765,8.143-17.632,15.546-17.632c7.875,0,13.191,7.201,12.857,13.119H94.749v1.279c0,9.496,4.709,14.01,11.777,14.01
						c4.105,0,7.133-1.624,9.496-4.514L116.419,43.662z M94.881,31.546l14.608-0.336v-0.745c0-6.73-2.021-9.759-6.262-9.759
						C98.116,20.706,95.419,25.417,94.881,31.546z"/>
					<path d="M151.379,53.149l-12.648-38.837c-1.952-5.924-3.372-8.286-5.724-10.839V3.344h14.065v0.129
						c-1.28,2.092-1.746,6.128-0.132,11.173l8.683,27.265l10.431-26.187l-0.538-1.412c-2.151-5.924-3.364-8.286-5.716-10.839V3.344
						h14.062v0.129c-1.076,1.951-1.955,6.128-0.13,11.173l9.422,26.724l7.671-23.425c2.493-7.74,1.279-12.316-0.132-14.472V3.344
						h8.884v0.129c-3.165,3.298-4.778,6.462-6.593,12.251l-12.185,37.425h-1.352l-12.722-35.473L152.73,53.149H151.379z"/>
					<path d="M197.416,36.589c0-8.946,7.875-17.091,17.231-17.091c9.422,0,17.297,8.146,17.297,17.091
						c0,9.089-7.875,17.029-17.297,17.029C205.153,53.618,197.416,45.678,197.416,36.589z M224.543,36.589
						c0-8.073-3.03-15.75-9.896-15.75c-6.797,0-9.827,7.677-9.827,15.75c0,8.145,2.893,15.686,9.827,15.686
						C221.576,52.275,224.543,44.734,224.543,36.589z"/>
					<path d="M238.396,52.609v-0.13c1.279-3.772,1.547-6.938,1.547-12.924v-7.946c0-4.505-1.409-6.932-3.03-8.748v-0.135
						l9.496-3.568v8.214h0.27c2.688-3.234,6.328-7.875,10.698-7.875l-0.133,8.21h-0.27c-1.208-1.078-4.583-2.022-5.989-2.022
						c-1.075,0-2.76,0.944-4.307,3.029v10.771c0,5.859,0.132,9.287,1.483,12.995v0.13H238.396z"/>
					<path d="M263.499,52.48c0.877-1.892,1.48-4.177,1.48-9.229V12.625c0-4.371-1.411-6.862-3.03-8.677V3.813l9.764-3.568v42.943
						c0,5.052,0.604,7.476,1.613,9.292v0.13h-9.827V52.48z M283.832,52.609l-11.581-16.693l7.737-8.414
						c2.156-2.351,2.961-5.18,1.886-6.862v-0.135h8.752v0.135c-4.042,1.817-6.932,4.711-9.695,7.67l-3.499,3.837l9.894,14.274
						c2.093,2.89,3.499,4.775,5.862,6.058v0.13H283.832z"/>
					<path d="M317.479,28.182l-0.405,0.128c-3.439-5.853-7.273-7.604-10.434-7.604c-3.502,0-5.521,2.221-5.521,4.979
						c0,3.837,4.241,5.524,8.681,7.273c4.648,1.952,9.562,4.574,9.562,10.969c0,6.661-5.59,9.691-12.59,9.691
						c-3.502,0-6.999-0.738-9.893-1.748l-0.668-8.619l0.397-0.127c3.436,6.526,6.733,9.281,11.04,9.281
						c4.515,0,6.193-3.03,6.193-5.785c0-3.496-2.559-5.12-7.136-7.064c-4.574-2.023-9.96-4.103-9.96-10.905
						c0-6.797,5.791-9.153,11.708-9.153c3.237,0,6.532,0.604,8.35,1.341L317.479,28.182z"/>
					<path d="M324.464,52.609v-0.13c1.214-3.708,1.483-7.001,1.483-12.924V12.625c0-4.371-1.417-6.932-3.03-8.748V3.742l9.759-3.498
						v25.441c2.895-3.498,6.055-6.188,10.836-6.188c6.188,0,9.562,3.763,9.562,9.757v10.301c0,5.923,0.064,9.216,1.473,12.924v0.13
						h-9.756v-0.13c1.277-3.772,1.547-7.271,1.547-12.924v-8.754c0-3.833-1.816-7.202-6.19-7.202c-2.898,0-5.383,1.284-7.473,3.435
						v12.522c0,5.788,0.138,9.216,1.544,12.924v0.13H324.464z"/>
					<path d="M359.874,36.589c0-8.946,7.869-17.091,17.228-17.091c9.431,0,17.306,8.146,17.306,17.091
						c0,9.089-7.875,17.029-17.306,17.029C367.617,53.618,359.874,45.678,359.874,36.589z M386.995,36.589
						c0-8.073-3.027-15.75-9.893-15.75c-6.794,0-9.821,7.677-9.821,15.75c0,8.145,2.89,15.686,9.821,15.686
						C384.039,52.275,386.995,44.734,386.995,36.589z"/>
					<path d="M399.712,67.756V67.62c1.28-3.767,1.55-6.932,1.55-12.926V31.609c0-4.505-1.411-6.932-3.03-8.748v-0.135l9.494-3.568
						v5.924l0.405,0.069c2.352-2.694,5.856-5.654,11.439-5.654c7.737,0,12.789,6.997,12.789,16.686
						c0,9.629-5.52,17.435-16.621,17.435c-3.168,0-5.658-0.534-7.743-1.549v2.562c0,5.853,0.136,9.286,1.482,12.989v0.136H399.712z
						 M425.289,37.463c0-9.627-3.965-13.593-9.827-13.593c-3.496,0-5.923,1.412-7.467,2.76v13.528c0,9.358,4.71,12.248,8.41,12.248
						C421.725,52.405,425.289,46.692,425.289,37.463z"/>
				</g>
			</g>
		</g>
	</g>
</g>
</svg>
